<?xml version="1.0" encoding="UTF-8" standalone="no"?>
<svg
   xmlns:dc="http://purl.org/dc/elements/1.1/"
   xmlns:cc="http://creativecommons.org/ns#"
   xmlns:rdf="http://www.w3.org/1999/02/22-rdf-syntax-ns#"
   xmlns:svg="http://www.w3.org/2000/svg"
   xmlns="http://www.w3.org/2000/svg"
   xmlns:sodipodi="http://sodipodi.sourceforge.net/DTD/sodipodi-0.dtd"
   xmlns:inkscape="http://www.inkscape.org/namespaces/inkscape"
   width="744"
   height="524"
   viewBox="0 0 196.85 138.64167"
   version="1.1"
   id="svg4129"
   inkscape:version="1.0.1 (3bc2e813f5, 2020-09-07)"
   sodipodi:docname="packetsniffer.svg">
  <defs
     id="defs4123">
    <clipPath
       clipPathUnits="userSpaceOnUse"
       id="clipPath4848">
      <rect
         style="opacity:1;fill:#5c5757;fill-opacity:1;stroke-width:0.264999;stroke-linejoin:bevel;stop-color:#000000"
         id="rect4850"
         width="196.85002"
         height="138.64166"
         x="-2.5177002e-05"
         y="9.7910561e-06" />
    </clipPath>
  </defs>
  <sodipodi:namedview
     id="base"
     pagecolor="#ffffff"
     bordercolor="#666666"
     borderopacity="1.0"
     inkscape:pageopacity="0.0"
     inkscape:pageshadow="2"
     inkscape:zoom="0.98994949"
     inkscape:cx="209.96023"
     inkscape:cy="293.19381"
     inkscape:document-units="mm"
     inkscape:current-layer="layer1"
     inkscape:document-rotation="0"
     showgrid="false"
     units="px"
     inkscape:snap-page="true"
     inkscape:window-width="1920"
     inkscape:window-height="1137"
     inkscape:window-x="-8"
     inkscape:window-y="-8"
     inkscape:window-maximized="1" />
  <metadata
     id="metadata4126">
    <rdf:RDF>
      <cc:Work
         rdf:about="">
        <dc:format>image/svg+xml</dc:format>
        <dc:type
           rdf:resource="http://purl.org/dc/dcmitype/StillImage" />
        <dc:title></dc:title>
      </cc:Work>
    </rdf:RDF>
  </metadata>
  <g
     inkscape:label="Layer 1"
     inkscape:groupmode="layer"
     id="layer1"
     style="opacity:1">
    <rect
       style="fill:#5c5757;fill-opacity:1;stroke-width:0.264998;stroke-linejoin:bevel;stop-color:#000000"
       id="rect4692"
       width="196.85001"
       height="138.64166"
       x="0"
       y="0"
       sodipodi:insensitive="true" />
    <g
       aria-label="✉ Packetsniffer"
       id="text4696"
       style="font-size:19.7556px;line-height:0.85;font-family:'Latin Modern Roman';-inkscape-font-specification:'Latin Modern Roman, ';stroke-width:0.264583">
      <path
         d="m 22.075734,18.04812 4.244368,-2.893886 H 14.821725 l 4.244367,2.893886 q 0.06752,-0.08682 0.144695,-0.163987 0.279742,-0.270096 0.627008,-0.424436 0.337621,-0.144695 0.733118,-0.144695 0.395498,0 0.733118,0.144695 0.414791,0.183279 0.627009,0.424436 0.07717,0.08682 0.144694,0.163987 z m 0.385852,1.562699 4.147904,2.797424 v -6.299027 l -4.147904,2.80707 q 0.02894,0.163987 0.02894,0.33762 0,0.18328 -0.02894,0.356913 z m -3.376201,0.85852 -4.26366,2.903533 h 11.498377 l -4.26366,-2.903533 q -0.05788,0.07717 -0.125402,0.144694 -0.279742,0.270096 -0.627009,0.424437 -0.33762,0.144694 -0.733118,0.144694 -0.395497,0 -0.733118,-0.144694 -0.347266,-0.154341 -0.627008,-0.424437 -0.06752,-0.06752 -0.125402,-0.144694 z M 18.670594,18.90664 14.532336,16.109216 v 6.299027 l 4.138258,-2.787778 q -0.02894,-0.183279 -0.02894,-0.366559 0,-0.173633 0.02894,-0.347266 z m -5.102886,5.430861 V 14.179958 h 14.006411 v 10.157543 z"
         style="fill:#b7ac7e;fill-opacity:1"
         id="path4925" />
      <path
         d="m 47.753505,16.641151 c 0,-1.936049 -1.955805,-3.674541 -4.662322,-3.674541 h -6.973727 v 0.612423 h 0.474135 c 1.521181,0 1.560692,0.217312 1.560692,0.928513 v 10.411202 c 0,0.711201 -0.03951,0.928513 -1.560692,0.928513 h -0.474135 v 0.612423 c 0.691446,-0.05927 2.153361,-0.05927 2.904073,-0.05927 0.750713,0 2.232383,0 2.923829,0.05927 v -0.612423 h -0.474134 c -1.521181,0 -1.560693,-0.217312 -1.560693,-0.928513 v -4.701833 h 3.338697 c 2.370672,0 4.504277,-1.600204 4.504277,-3.575764 z m -2.034827,0 c 0,0.928513 0,3.062118 -3.141141,3.062118 h -2.726272 v -5.334012 c 0,-0.651935 0.03951,-0.790224 0.968024,-0.790224 h 1.758248 c 3.141141,0 3.141141,2.094094 3.141141,3.062118 z"
         style="fill:#ffffff;fill-opacity:1"
         id="path4927" />
      <path
         d="m 57.868331,24.701436 v -1.106314 h -0.49389 v 1.106314 c 0,1.145825 -0.49389,1.264358 -0.711202,1.264358 -0.651935,0 -0.730957,-0.889002 -0.730957,-0.98778 v -3.95112 c 0,-0.829735 0,-1.600203 -0.711202,-2.33116 -0.770468,-0.770469 -1.758248,-1.086558 -2.706517,-1.086558 -1.619959,0 -2.983095,0.928513 -2.983095,2.232382 0,0.592668 0.395112,0.928514 0.908757,0.928514 0.553157,0 0.908758,-0.395112 0.908758,-0.908758 0,-0.237067 -0.09878,-0.889002 -1.007536,-0.908758 0.533401,-0.691446 1.501426,-0.908757 2.133605,-0.908757 0.968024,0 2.094094,0.770468 2.094094,2.528717 v 0.730957 c -1.007536,0.05927 -2.390428,0.118533 -3.635031,0.711201 -1.48167,0.671691 -1.97556,1.698982 -1.97556,2.568228 0,1.600204 1.916293,2.094094 3.160896,2.094094 1.30387,0 2.212627,-0.790224 2.587984,-1.718737 0.07902,0.790224 0.612423,1.619959 1.540937,1.619959 0.414867,0 1.619959,-0.276578 1.619959,-1.876782 z M 54.569146,23.6939 c 0,1.876782 -1.422404,2.548473 -2.311406,2.548473 -0.968024,0 -1.778004,-0.691446 -1.778004,-1.679226 0,-1.086558 0.829736,-2.726273 4.08941,-2.844807 z"
         style="fill:#ffffff;fill-opacity:1"
         id="path4929" />
      <path
         d="m 66.402712,24.108768 c 0,-0.197556 -0.197556,-0.197556 -0.256823,-0.197556 -0.1778,0 -0.217312,0.07902 -0.256823,0.197556 -0.572912,1.837271 -1.857026,2.074338 -2.587983,2.074338 -1.047047,0 -2.78554,-0.849491 -2.78554,-4.030142 0,-3.220163 1.619959,-4.049898 2.667006,-4.049898 0.1778,0 1.422403,0.01975 2.113849,0.730957 -0.809979,0.05927 -0.928513,0.651935 -0.928513,0.908757 0,0.513646 0.355601,0.908758 0.908758,0.908758 0.513645,0 0.908757,-0.335845 0.908757,-0.928513 0,-1.343381 -1.501425,-2.113849 -3.022607,-2.113849 -2.46945,0 -4.286965,2.133604 -4.286965,4.583299 0,2.528717 1.955805,4.484521 4.247454,4.484521 2.647251,0 3.27943,-2.370672 3.27943,-2.568228 z"
         style="fill:#ffffff;fill-opacity:1"
         id="path4931" />
      <path
         d="m 76.517511,26.459684 v -0.612423 c -0.730957,0 -1.16558,0 -1.916293,-1.047047 l -2.508961,-3.536252 c -0.01976,-0.03951 -0.118534,-0.158045 -0.118534,-0.217312 0,-0.07902 1.402648,-1.264358 1.600204,-1.422403 1.244603,-1.007536 2.074338,-1.047047 2.489205,-1.066803 v -0.612423 c -0.572912,0.05927 -0.829735,0.05927 -1.382892,0.05927 -0.711201,0 -1.936048,-0.03951 -2.212627,-0.05927 v 0.612423 c 0.375357,0.01976 0.572913,0.237068 0.572913,0.49389 0,0.395112 -0.276579,0.63218 -0.434624,0.770469 l -2.785539,2.410183 v -9.482688 l -2.844807,0.217312 v 0.612423 c 1.382892,0 1.540937,0.138289 1.540937,1.106314 v 10.272912 c 0,0.889002 -0.217311,0.889002 -1.540937,0.889002 v 0.612423 l 2.153361,-0.05927 2.173116,0.05927 v -0.612423 c -1.323625,0 -1.540937,0 -1.540937,-0.889002 v -2.034827 l 1.264358,-1.086558 c 1.521182,2.094094 2.350917,3.200407 2.350917,3.556008 0,0.375356 -0.335845,0.454379 -0.711202,0.454379 v 0.612423 l 2.133605,-0.05927 c 0.572912,0 1.145825,0.01975 1.718737,0.05927 z"
         style="fill:#ffffff;fill-opacity:1"
         id="path4933" />
      <path
         d="m 84.498739,24.108768 c 0,-0.197556 -0.158045,-0.237067 -0.256823,-0.237067 -0.1778,0 -0.217311,0.118533 -0.256822,0.276578 -0.691446,2.034827 -2.46945,2.034827 -2.667006,2.034827 -0.98778,0 -1.778004,-0.592668 -2.232383,-1.323625 -0.592668,-0.948269 -0.592668,-2.252139 -0.592668,-2.96334 h 5.511812 c 0.434623,0 0.49389,0 0.49389,-0.414868 0,-1.955804 -1.066802,-3.872097 -3.536252,-3.872097 -2.29165,0 -4.109165,2.034826 -4.109165,4.504276 0,2.647251 2.074338,4.563544 4.346232,4.563544 2.410183,0 3.299185,-2.192872 3.299185,-2.568228 z M 83.19487,21.481273 h -4.682078 c 0.118534,-2.943584 1.778004,-3.437474 2.449695,-3.437474 2.034827,0 2.232383,2.667006 2.232383,3.437474 z"
         style="fill:#ffffff;fill-opacity:1"
         id="path4935" />
      <path
         d="m 91.630478,24.00999 v -1.126069 h -0.49389 v 1.086558 c 0,1.461914 -0.592668,2.212627 -1.323625,2.212627 -1.323625,0 -1.323625,-1.79776 -1.323625,-2.133605 v -5.492057 h 2.825051 V 17.945021 H 88.489338 V 14.30999 h -0.49389 c -0.01976,1.61996 -0.612424,3.733809 -2.548473,3.812831 v 0.434623 h 1.679226 v 5.452546 c 0,2.429939 1.837271,2.667006 2.548473,2.667006 1.402647,0 1.955804,-1.402648 1.955804,-2.667006 z"
         style="fill:#ffffff;fill-opacity:1"
         id="path4937" />
      <path
         d="m 99.868556,23.930968 c 0,-1.047047 -0.592668,-1.639715 -0.829735,-1.876782 -0.651935,-0.63218 -1.422403,-0.790224 -2.252138,-0.948269 -1.106314,-0.217312 -2.429939,-0.474135 -2.429939,-1.619959 0,-0.691446 0.513645,-1.501426 2.212627,-1.501426 2.173116,0 2.271894,1.778004 2.311405,2.390428 0.01976,0.1778 0.237067,0.1778 0.237067,0.1778 0.256823,0 0.256823,-0.09878 0.256823,-0.474134 V 18.08331 c 0,-0.335845 0,-0.474134 -0.217311,-0.474134 -0.09878,0 -0.13829,0 -0.395112,0.237067 -0.05927,0.07902 -0.256823,0.256823 -0.335846,0.316089 -0.750712,-0.553156 -1.560692,-0.553156 -1.857026,-0.553156 -2.410183,0 -3.160896,1.323625 -3.160896,2.429938 0,0.691446 0.31609,1.244603 0.849491,1.679226 0.632179,0.513646 1.185336,0.63218 2.607739,0.908758 0.434623,0.07902 2.054582,0.395112 2.054582,1.817515 0,1.007536 -0.691446,1.79776 -2.232382,1.79776 -1.659471,0 -2.370672,-1.126069 -2.746029,-2.805295 -0.05927,-0.256823 -0.07902,-0.335846 -0.276578,-0.335846 -0.256823,0 -0.256823,0.13829 -0.256823,0.49389 v 2.60774 c 0,0.335845 0,0.474134 0.217312,0.474134 0.09878,0 0.118533,-0.01976 0.49389,-0.395112 0.03951,-0.03951 0.03951,-0.07902 0.395112,-0.454379 0.869246,0.829735 1.758248,0.849491 2.173116,0.849491 2.271894,0 3.180651,-1.323625 3.180651,-2.746028 z"
         style="fill:#ffffff;fill-opacity:1"
         id="path4939" />
      <path
         d="m 111.10948,26.459684 v -0.612423 c -1.02729,0 -1.52118,0 -1.54094,-0.592668 v -3.77332 c 0,-1.698981 0,-2.311405 -0.61242,-3.022607 -0.27658,-0.335845 -0.92852,-0.730957 -2.07434,-0.730957 -1.44216,0 -2.37067,0.849491 -2.92383,2.074338 v -2.074338 l -2.78554,0.217312 v 0.612423 c 1.38289,0 1.54094,0.13829 1.54094,1.106314 v 5.294501 c 0,0.889002 -0.21731,0.889002 -1.54094,0.889002 v 0.612423 l 2.23238,-0.05927 2.21263,0.05927 v -0.612423 c -1.32362,0 -1.54094,0 -1.54094,-0.889002 v -3.635031 c 0,-2.054582 1.40265,-3.160896 2.66701,-3.160896 1.2446,0 1.46191,1.066803 1.46191,2.192872 v 4.603055 c 0,0.889002 -0.21731,0.889002 -1.54093,0.889002 v 0.612423 l 2.23238,-0.05927 z"
         style="fill:#ffffff;fill-opacity:1"
         id="path4941" />
      <path
         d="m 116.40397,26.459684 v -0.612423 c -1.30387,0 -1.38289,-0.09878 -1.38289,-0.869247 v -7.250305 l -2.76578,0.217312 v 0.612423 c 1.28411,0 1.46191,0.118534 1.46191,1.086558 v 5.314257 c 0,0.889002 -0.21731,0.889002 -1.54094,0.889002 v 0.612423 l 2.17312,-0.05927 c 0.69145,0 1.38289,0.03951 2.05458,0.05927 z m -1.08656,-11.932382 c 0,-0.533401 -0.45437,-1.047047 -1.04704,-1.047047 -0.67169,0 -1.0668,0.553157 -1.0668,1.047047 0,0.533401 0.45437,1.047047 1.04704,1.047047 0.67169,0 1.0668,-0.553157 1.0668,-1.047047 z"
         style="fill:#ffffff;fill-opacity:1"
         id="path4943" />
      <path
         d="m 129.42291,13.914878 c 0,-0.711201 -0.69144,-1.382892 -1.79776,-1.382892 -1.16558,0 -2.03482,0.750713 -2.1336,0.829736 -0.57291,-0.730958 -1.67923,-0.829736 -2.21263,-0.829736 -1.87678,0 -4.16843,1.027292 -4.16843,3.160896 v 2.252139 h -1.56069 v 0.612423 h 1.56069 v 6.400815 c 0,0.889002 -0.21731,0.889002 -1.54094,0.889002 v 0.612423 l 2.19288,-0.05927 2.19287,0.05927 v -0.612423 c -1.32363,0 -1.54094,0 -1.54094,-0.889002 v -6.400815 h 4.14868 v 6.400815 c 0,0.889002 -0.21731,0.889002 -1.54094,0.889002 v 0.612423 l 2.25214,-0.05927 c 0.79022,0 1.71874,0 2.50896,0.05927 v -0.612423 h -0.41487 c -1.46191,0 -1.50142,-0.217312 -1.50142,-0.928513 v -6.361304 h 2.27189 v -0.612423 h -2.33116 v -2.29165 c 0,-1.758248 0.94827,-2.686761 1.83727,-2.686761 0.0593,0 0.3556,0 0.65194,0.138289 -0.23707,0.07902 -0.59267,0.335845 -0.59267,0.829735 0,0.454379 0.31609,0.849491 0.84949,0.849491 0.57291,0 0.86924,-0.395112 0.86924,-0.869247 z m -4.64256,-0.572912 c -0.31609,0.05927 -0.7112,0.31609 -0.7112,0.869246 0,0.118534 0.0198,0.612424 0.55315,0.790224 -0.0593,0.256823 -0.0593,0.434624 -0.0593,0.671691 v 2.271894 h -4.20795 v -2.232383 c 0,-1.916293 1.61996,-2.746028 2.90408,-2.746028 0.96802,0 1.52118,0.375356 1.52118,0.375356 z"
         style="fill:#ffffff;fill-opacity:1"
         id="path4945" />
      <path
         d="m 136.73245,24.108768 c 0,-0.197556 -0.15804,-0.237067 -0.25682,-0.237067 -0.1778,0 -0.21731,0.118533 -0.25683,0.276578 -0.69144,2.034827 -2.46945,2.034827 -2.667,2.034827 -0.98778,0 -1.77801,-0.592668 -2.23238,-1.323625 -0.59267,-0.948269 -0.59267,-2.252139 -0.59267,-2.96334 h 5.51181 c 0.43462,0 0.49389,0 0.49389,-0.414868 0,-1.955804 -1.0668,-3.872097 -3.53625,-3.872097 -2.29165,0 -4.10917,2.034826 -4.10917,4.504276 0,2.647251 2.07434,4.563544 4.34624,4.563544 2.41018,0 3.29918,-2.192872 3.29918,-2.568228 z m -1.30387,-2.627495 h -4.68208 c 0.11854,-2.943584 1.77801,-3.437474 2.4497,-3.437474 2.03482,0 2.23238,2.667006 2.23238,3.437474 z"
         style="fill:#ffffff;fill-opacity:1"
         id="path4947" />
      <path
         d="m 144.49637,18.932801 c 0,-0.632179 -0.61242,-1.205092 -1.46192,-1.205092 -1.44215,0 -2.15336,1.323625 -2.42993,2.173116 v -2.173116 l -2.74603,0.217312 v 0.612423 c 1.38289,0 1.54093,0.13829 1.54093,1.106314 v 5.294501 c 0,0.889002 -0.21731,0.889002 -1.54093,0.889002 v 0.612423 l 2.25214,-0.05927 c 0.79022,0 1.71873,0 2.50896,0.05927 v -0.612423 h -0.41487 c -1.46192,0 -1.50143,-0.217312 -1.50143,-0.928513 v -3.042363 c 0,-1.955804 0.82974,-3.714053 2.33116,-3.714053 0.13829,0 0.1778,0 0.21732,0.01976 -0.0593,0.01976 -0.45438,0.256823 -0.45438,0.770468 0,0.553157 0.41486,0.849491 0.84949,0.849491 0.3556,0 0.84949,-0.237067 0.84949,-0.869246 z"
         style="fill:#ffffff;fill-opacity:1"
         id="path4949" />
    </g>
    <g
       id="g4825"
       transform="matrix(1.2331436,0,0,1.2331436,-37.892316,-32.072358)"
       style="stroke-width:0.810936">
      <rect
         style="fill:none;fill-opacity:1;stroke:#b7ac7e;stroke-width:2.14561;stroke-linejoin:miter;stroke-miterlimit:4;stroke-dasharray:none;stroke-opacity:1;stop-color:#000000"
         id="rect4778"
         width="67.351921"
         height="60.87888"
         x="103.76503"
         y="91.785713"
         clip-path="url(#clipPath4848)" />
      <path
         style="fill:none;stroke:#b7ac7e;stroke-width:2.1456;stroke-linecap:butt;stroke-linejoin:miter;stroke-miterlimit:4;stroke-dasharray:none;stroke-opacity:1"
         d="m 111.20055,100.57947 h 51.78274"
         id="path4780" />
      <path
         style="fill:none;stroke:#b7ac7e;stroke-width:2.1456;stroke-linecap:butt;stroke-linejoin:miter;stroke-miterlimit:4;stroke-dasharray:none;stroke-opacity:1"
         d="m 111.20055,108.51702 h 5.85863"
         id="path4782" />
      <path
         style="fill:none;stroke:#b7ac7e;stroke-width:2.1456;stroke-linecap:butt;stroke-linejoin:miter;stroke-miterlimit:4;stroke-dasharray:none;stroke-opacity:1"
         d="m 122.35088,108.51702 h 27.78125"
         id="path4784" />
      <path
         style="fill:none;stroke:#b7ac7e;stroke-width:2.1456;stroke-linecap:butt;stroke-linejoin:miter;stroke-miterlimit:4;stroke-dasharray:none;stroke-opacity:1"
         d="m 111.20055,115.9254 h 34.58483"
         id="path4786" />
    </g>
    <g
       id="g4830"
       transform="matrix(1.2331436,0,0,1.2331436,-37.881342,-31.460163)"
       style="stroke-width:0.810936">
      <rect
         style="fill:none;fill-opacity:1;stroke:#b77d71;stroke-width:2.1456;stroke-linejoin:miter;stroke-miterlimit:4;stroke-dasharray:none;stroke-opacity:1;stop-color:#000000"
         id="rect4788"
         width="67.344986"
         height="9.5758896"
         x="103.77196"
         y="79.563988" />
      <rect
         style="opacity:1;fill:none;fill-opacity:1;stroke:#aad171;stroke-width:2.1456;stroke-linejoin:miter;stroke-miterlimit:4;stroke-dasharray:none;stroke-opacity:1;stop-color:#000000"
         id="rect4788-3"
         width="67.34008"
         height="9.5877018"
         x="103.77687"
         y="67.817047" />
      <rect
         style="opacity:1;fill:none;fill-opacity:1;stroke:#7897b7;stroke-width:2.1456;stroke-linejoin:miter;stroke-miterlimit:4;stroke-dasharray:none;stroke-opacity:1;stop-color:#000000"
         id="rect4788-3-9"
         width="67.351913"
         height="10.709821"
         x="103.76504"
         y="54.959785" />
    </g>
    <g
       aria-label="Ethernet"
       id="text4854"
       style="font-style:normal;font-variant:normal;font-weight:normal;font-stretch:normal;font-size:8.46667px;line-height:0.85;font-family:'Latin Modern Mono';-inkscape-font-specification:'Latin Modern Mono';stroke-width:0.214898;stroke-miterlimit:4;stroke-dasharray:none"
       transform="matrix(1.2331436,0,0,1.2331436,-37.797822,-30.201375)">
      <path
         d="m 111.02854,61.640961 v -0.753534 c 0,-0.160867 0,-0.347133 -0.28787,-0.347133 -0.29633,0 -0.29633,0.1778 -0.29633,0.347133 v 0.5842 h -2.26061 v -1.905 h 1.10914 c 0,0.347133 0,0.4826 0.29633,0.4826 0.28787,0 0.28787,-0.186267 0.28787,-0.347134 v -0.7874 c 0,-0.160867 0,-0.347133 -0.28787,-0.347133 -0.29633,0 -0.29633,0.135466 -0.29633,0.4826 h -1.10914 v -1.718734 h 2.07434 v 0.448733 c 0,0.160867 0,0.347134 0.28787,0.347134 0.29633,0 0.29633,-0.1778 0.29633,-0.347134 v -0.618067 c 0,-0.262466 -0.0508,-0.347133 -0.33867,-0.347133 h -3.15807 c -0.127,0 -0.34713,0 -0.34713,0.254 0,0.262467 0.22013,0.262467 0.34713,0.262467 h 0.254 v 4.140201 h -0.254 c -0.13546,0 -0.34713,0 -0.34713,0.262467 0,0.254 0.22013,0.254 0.34713,0.254 h 3.34434 c 0.2794,0 0.33867,-0.0762 0.33867,-0.347133 z"
         style="font-style:normal;font-variant:normal;font-weight:normal;font-stretch:normal;font-size:8.46667px;font-family:'Latin Modern Mono';-inkscape-font-specification:'Latin Modern Mono';fill:#d8e7f0;fill-opacity:1;stroke-width:0.214898;stroke-miterlimit:4;stroke-dasharray:none"
         id="path4908" />
      <path
         d="m 115.0248,60.921294 c 0,-0.1524 0,-0.3302 -0.29633,-0.3302 -0.2794,0 -0.28787,0.1778 -0.28787,0.321733 -0.008,0.524934 -0.49107,0.6096 -0.6858,0.6096 -0.65193,0 -0.65193,-0.440266 -0.65193,-0.651933 v -2.015068 h 1.38853 c 0.127,0 0.33867,0 0.33867,-0.254 0,-0.262466 -0.2032,-0.262466 -0.33867,-0.262466 h -1.38853 v -0.694267 c 0,-0.160867 0,-0.347134 -0.28787,-0.347134 -0.29633,0 -0.29633,0.1778 -0.29633,0.347134 v 0.694267 h -0.7366 c -0.13547,0 -0.34714,0 -0.34714,0.262466 0,0.254 0.21167,0.254 0.33867,0.254 h 0.74507 v 2.065868 c 0,0.8128 0.57573,1.1176 1.1938,1.1176 0.62653,0 1.31233,-0.364066 1.31233,-1.1176 z"
         style="font-style:normal;font-variant:normal;font-weight:normal;font-stretch:normal;font-size:8.46667px;font-family:'Latin Modern Mono';-inkscape-font-specification:'Latin Modern Mono';fill:#d8e7f0;fill-opacity:1;stroke-width:0.214898;stroke-miterlimit:4;stroke-dasharray:none"
         id="path4910" />
      <path
         d="m 120.0032,61.734094 c 0,-0.262467 -0.21167,-0.262467 -0.34713,-0.262467 h -0.37254 V 59.50736 c 0,-0.855134 -0.4318,-1.2192 -1.10066,-1.2192 -0.56727,0 -0.94827,0.287866 -1.10914,0.448733 v -1.574801 c 0,-0.262466 -0.0508,-0.347133 -0.33867,-0.347133 H 116.117 c -0.13547,0 -0.34714,0 -0.34714,0.262467 0,0.254 0.22014,0.254 0.33867,0.254 h 0.381 v 4.140201 H 116.117 c -0.13547,0 -0.34714,0 -0.34714,0.262467 0,0.254 0.22014,0.254 0.33867,0.254 h 1.3462 c 0.11854,0 0.33867,0 0.33867,-0.254 0,-0.262467 -0.21167,-0.262467 -0.34713,-0.262467 h -0.37254 v -1.4986 c 0,-0.846667 0.62654,-1.168401 1.05834,-1.168401 0.44873,0 0.56726,0.237067 0.56726,0.745067 v 1.921934 h -0.3302 c -0.13546,0 -0.34713,0 -0.34713,0.262467 0,0.254 0.2286,0.254 0.34713,0.254 h 1.2954 c 0.11854,0 0.33867,0 0.33867,-0.254 z"
         style="font-style:normal;font-variant:normal;font-weight:normal;font-stretch:normal;font-size:8.46667px;font-family:'Latin Modern Mono';-inkscape-font-specification:'Latin Modern Mono';fill:#d8e7f0;fill-opacity:1;stroke-width:0.214898;stroke-miterlimit:4;stroke-dasharray:none"
         id="path4912" />
      <path
         d="m 124.0418,61.065227 c 0,-0.237066 -0.24554,-0.237066 -0.29634,-0.237066 -0.1524,0 -0.22013,0.0254 -0.2794,0.186266 -0.18626,0.4318 -0.64346,0.508 -0.88053,0.508 -0.635,0 -1.27,-0.423333 -1.40547,-1.151467 h 2.52307 c 0.1778,0 0.33867,0 0.33867,-0.313266 0,-0.965201 -0.54187,-1.794934 -1.64254,-1.794934 -1.00753,0 -1.82033,0.846667 -1.82033,1.888067 0,1.032934 0.85513,1.888067 1.94733,1.888067 1.1176,0 1.51554,-0.762 1.51554,-0.973667 z m -0.60114,-1.202267 h -2.25213 c 0.11853,-0.618067 0.61807,-1.083734 1.21073,-1.083734 0.44027,0 0.9652,0.211667 1.0414,1.083734 z"
         style="font-style:normal;font-variant:normal;font-weight:normal;font-stretch:normal;font-size:8.46667px;font-family:'Latin Modern Mono';-inkscape-font-specification:'Latin Modern Mono';fill:#d8e7f0;fill-opacity:1;stroke-width:0.214898;stroke-miterlimit:4;stroke-dasharray:none"
         id="path4914" />
      <path
         d="m 128.68153,58.813093 c 0,-0.169333 -0.1016,-0.524933 -0.80433,-0.524933 -0.4318,0 -0.97367,0.1524 -1.43934,0.6858 v -0.287867 c 0,-0.262467 -0.0508,-0.347133 -0.33866,-0.347133 h -0.93134 c -0.127,0 -0.33866,0 -0.33866,0.254 0,0.262466 0.2032,0.262466 0.33866,0.262466 h 0.6858 v 2.616201 h -0.6858 c -0.127,0 -0.33866,0 -0.33866,0.254001 0,0.262466 0.2032,0.262466 0.33866,0.262466 h 2.2098 c 0.127,0 0.34714,0 0.34714,-0.254 0,-0.262467 -0.22014,-0.262467 -0.34714,-0.262467 h -0.9398 v -1.058333 c 0,-0.795867 0.49954,-1.608668 1.524,-1.608668 0.008,0.2032 0.1524,0.372534 0.36407,0.372534 0.18627,0 0.3556,-0.135467 0.3556,-0.364067 z"
         style="font-style:normal;font-variant:normal;font-weight:normal;font-stretch:normal;font-size:8.46667px;font-family:'Latin Modern Mono';-inkscape-font-specification:'Latin Modern Mono';fill:#d8e7f0;fill-opacity:1;stroke-width:0.214898;stroke-miterlimit:4;stroke-dasharray:none"
         id="path4916" />
      <path
         d="m 133.3382,61.734094 c 0,-0.262467 -0.21167,-0.262467 -0.34714,-0.262467 h -0.37253 V 59.50736 c 0,-0.855134 -0.4318,-1.2192 -1.10067,-1.2192 -0.56726,0 -0.94826,0.287866 -1.10913,0.448733 0,-0.270933 0,-0.397933 -0.33867,-0.397933 H 129.452 c -0.13547,0 -0.34714,0 -0.34714,0.262466 0,0.254 0.22014,0.254 0.33867,0.254 h 0.381 v 2.616201 H 129.452 c -0.13547,0 -0.34714,0 -0.34714,0.262467 0,0.254 0.22014,0.254 0.33867,0.254 h 1.3462 c 0.11853,0 0.33867,0 0.33867,-0.254 0,-0.262467 -0.21167,-0.262467 -0.34714,-0.262467 h -0.37253 v -1.4986 c 0,-0.846667 0.62653,-1.168401 1.05833,-1.168401 0.44874,0 0.56727,0.237067 0.56727,0.745067 v 1.921934 h -0.3302 c -0.13547,0 -0.34713,0 -0.34713,0.262467 0,0.254 0.2286,0.254 0.34713,0.254 h 1.2954 c 0.11853,0 0.33867,0 0.33867,-0.254 z"
         style="font-style:normal;font-variant:normal;font-weight:normal;font-stretch:normal;font-size:8.46667px;font-family:'Latin Modern Mono';-inkscape-font-specification:'Latin Modern Mono';fill:#d8e7f0;fill-opacity:1;stroke-width:0.214898;stroke-miterlimit:4;stroke-dasharray:none"
         id="path4918" />
      <path
         d="m 137.37679,61.065227 c 0,-0.237066 -0.24553,-0.237066 -0.29633,-0.237066 -0.1524,0 -0.22013,0.0254 -0.2794,0.186266 -0.18627,0.4318 -0.64347,0.508 -0.88053,0.508 -0.635,0 -1.27,-0.423333 -1.40547,-1.151467 h 2.52307 c 0.1778,0 0.33866,0 0.33866,-0.313266 0,-0.965201 -0.54186,-1.794934 -1.64253,-1.794934 -1.00753,0 -1.82033,0.846667 -1.82033,1.888067 0,1.032934 0.85513,1.888067 1.94733,1.888067 1.1176,0 1.51553,-0.762 1.51553,-0.973667 z m -0.60113,-1.202267 h -2.25213 c 0.11853,-0.618067 0.61806,-1.083734 1.21073,-1.083734 0.44027,0 0.9652,0.211667 1.0414,1.083734 z"
         style="font-style:normal;font-variant:normal;font-weight:normal;font-stretch:normal;font-size:8.46667px;font-family:'Latin Modern Mono';-inkscape-font-specification:'Latin Modern Mono';fill:#d8e7f0;fill-opacity:1;stroke-width:0.214898;stroke-miterlimit:4;stroke-dasharray:none"
         id="path4920" />
      <path
         d="m 141.69479,60.921294 c 0,-0.1524 0,-0.3302 -0.29633,-0.3302 -0.2794,0 -0.28787,0.1778 -0.28787,0.321733 -0.008,0.524934 -0.49107,0.6096 -0.6858,0.6096 -0.65193,0 -0.65193,-0.440266 -0.65193,-0.651933 v -2.015068 h 1.38853 c 0.127,0 0.33867,0 0.33867,-0.254 0,-0.262466 -0.2032,-0.262466 -0.33867,-0.262466 h -1.38853 v -0.694267 c 0,-0.160867 0,-0.347134 -0.28787,-0.347134 -0.29633,0 -0.29633,0.1778 -0.29633,0.347134 v 0.694267 h -0.7366 c -0.13547,0 -0.34714,0 -0.34714,0.262466 0,0.254 0.21167,0.254 0.33867,0.254 h 0.74507 v 2.065868 c 0,0.8128 0.57573,1.1176 1.1938,1.1176 0.62653,0 1.31233,-0.364066 1.31233,-1.1176 z"
         style="font-style:normal;font-variant:normal;font-weight:normal;font-stretch:normal;font-size:8.46667px;font-family:'Latin Modern Mono';-inkscape-font-specification:'Latin Modern Mono';fill:#d8e7f0;fill-opacity:1;stroke-width:0.214898;stroke-miterlimit:4;stroke-dasharray:none"
         id="path4922" />
    </g>
    <g
       aria-label="TCP"
       id="text4854-1"
       style="font-style:normal;font-variant:normal;font-weight:normal;font-stretch:normal;font-size:8.46667px;line-height:0.85;font-family:'Latin Modern Mono';-inkscape-font-specification:'Latin Modern Mono';opacity:1;stroke-width:0.21456"
       transform="matrix(1.2331436,0,0,1.2331436,-37.797822,-30.730542)">
      <path
         d="m 110.81325,70.546681 v -0.618067 c 0,-0.262467 -0.0508,-0.347134 -0.33867,-0.347134 h -3.31047 c -0.2794,0 -0.34713,0.06773 -0.34713,0.347134 v 0.618067 c 0,0.160867 0,0.347133 0.28787,0.347133 0.29633,0 0.29633,-0.1778 0.29633,-0.347133 v -0.448734 h 1.12607 v 4.140202 h -0.44027 c -0.127,0 -0.33867,0 -0.33867,0.254 0,0.262467 0.2032,0.262467 0.33867,0.262467 h 1.46474 c 0.127,0 0.33866,0 0.33866,-0.254 0,-0.262467 -0.2032,-0.262467 -0.33866,-0.262467 h -0.44027 v -4.140202 h 1.1176 v 0.448734 c 0,0.160867 0,0.347133 0.28787,0.347133 0.29633,0 0.29633,-0.1778 0.29633,-0.347133 z"
         style="font-style:normal;font-variant:normal;font-weight:normal;font-stretch:normal;font-size:8.46667px;font-family:'Latin Modern Mono';-inkscape-font-specification:'Latin Modern Mono';fill:#e9ffe8;fill-opacity:1;stroke-width:0.21456"
         id="path4901" />
      <path
         d="m 115.13971,73.332215 c 0,-0.2794 -0.2032,-0.2794 -0.29633,-0.2794 -0.0762,0 -0.27093,0 -0.28787,0.245534 -0.0593,0.829733 -0.74506,1.032933 -1.0922,1.032933 -0.77046,0 -1.4986,-0.897467 -1.4986,-2.167467 0,-1.261534 0.7366,-2.159001 1.49014,-2.159001 0.508,0 0.97366,0.389467 1.0922,1.075267 0.0254,0.143933 0.0423,0.2794 0.29633,0.2794 0.29633,0 0.29633,-0.1778 0.29633,-0.347133 V 69.83548 c 0,-0.135466 0,-0.347133 -0.254,-0.347133 -0.1524,0 -0.19473,0.08467 -0.23706,0.143933 -0.0169,0.03387 -0.0169,0.0508 -0.127,0.262467 -0.2794,-0.237067 -0.66887,-0.4064 -1.10067,-0.4064 -1.0922,0 -2.04047,1.134534 -2.04047,2.675468 0,1.5494 0.94827,2.683934 2.04894,2.683934 0.98213,0 1.71026,-0.753533 1.71026,-1.515534 z"
         style="font-style:normal;font-variant:normal;font-weight:normal;font-stretch:normal;font-size:8.46667px;font-family:'Latin Modern Mono';-inkscape-font-specification:'Latin Modern Mono';fill:#e9ffe8;fill-opacity:1;stroke-width:0.21456"
         id="path4903" />
      <path
         d="m 119.55085,71.130881 c 0,-0.7874 -0.62654,-1.549401 -1.6002,-1.549401 h -1.89654 c -0.127,0 -0.34713,0 -0.34713,0.254 0,0.262467 0.22013,0.262467 0.34713,0.262467 h 0.254 v 4.140202 h -0.254 c -0.13546,0 -0.34713,0 -0.34713,0.262467 0,0.254 0.22013,0.254 0.34713,0.254 h 1.0922 c 0.127,0 0.34714,0 0.34714,-0.254 0,-0.262467 -0.22014,-0.262467 -0.34714,-0.262467 h -0.254 v -1.557867 h 1.05834 c 0.98213,0 1.6002,-0.762001 1.6002,-1.549401 z m -0.5842,0 c 0,0.448734 -0.36407,1.032934 -1.17687,1.032934 h -0.89747 v -2.065868 h 0.89747 c 0.8128,0 1.17687,0.5842 1.17687,1.032934 z"
         style="font-style:normal;font-variant:normal;font-weight:normal;font-stretch:normal;font-size:8.46667px;font-family:'Latin Modern Mono';-inkscape-font-specification:'Latin Modern Mono';fill:#e9ffe8;fill-opacity:1;stroke-width:0.21456"
         id="path4905" />
    </g>
    <g
       aria-label="HTTP"
       id="text4854-1-4"
       style="font-style:normal;font-variant:normal;font-weight:normal;font-stretch:normal;font-size:8.46667px;line-height:0.85;font-family:'Latin Modern Mono';-inkscape-font-specification:'Latin Modern Mono';opacity:1;stroke-width:0.21456"
       transform="matrix(1.2331436,0,0,1.2331436,-37.797822,-31.259709)">
      <path
         d="m 111.05606,86.810247 c 0,-0.262467 -0.2032,-0.262467 -0.33866,-0.262467 h -0.21167 v -4.140201 h 0.21167 c 0.127,0 0.33866,0 0.33866,-0.254 0,-0.262467 -0.2032,-0.262467 -0.33866,-0.262467 h -1.00754 c -0.127,0 -0.33867,0 -0.33867,0.254 0,0.262467 0.2032,0.262467 0.33867,0.262467 h 0.21167 v 1.710267 h -1.79494 v -1.710267 h 0.21167 c 0.127,0 0.33867,0 0.33867,-0.254 0,-0.262467 -0.2032,-0.262467 -0.33867,-0.262467 h -1.00753 c -0.13547,0 -0.33867,0 -0.33867,0.262467 0,0.254 0.21167,0.254 0.33867,0.254 h 0.21166 v 4.140201 h -0.21166 c -0.13547,0 -0.33867,0 -0.33867,0.262467 0,0.254 0.21167,0.254 0.33867,0.254 h 1.00753 c 0.127,0 0.33867,0 0.33867,-0.254 0,-0.262467 -0.2032,-0.262467 -0.33867,-0.262467 h -0.21167 v -1.913467 h 1.79494 v 1.913467 h -0.21167 c -0.127,0 -0.33867,0 -0.33867,0.254 0,0.262467 0.2032,0.262467 0.33867,0.262467 h 1.00754 c 0.127,0 0.33866,0 0.33866,-0.254 z"
         style="font-style:normal;font-variant:normal;font-weight:normal;font-stretch:normal;font-size:8.46667px;font-family:'Latin Modern Mono';-inkscape-font-specification:'Latin Modern Mono';fill:#ffdada;fill-opacity:1;stroke-width:0.21456"
         id="path4892" />
      <path
         d="m 115.46719,82.856312 v -0.618067 c 0,-0.262467 -0.0508,-0.347133 -0.33866,-0.347133 h -3.31047 c -0.2794,0 -0.34713,0.06773 -0.34713,0.347133 v 0.618067 c 0,0.160867 0,0.347134 0.28786,0.347134 0.29634,0 0.29634,-0.1778 0.29634,-0.347134 v -0.448733 h 1.12606 v 4.140201 h -0.44026 c -0.127,0 -0.33867,0 -0.33867,0.254 0,0.262467 0.2032,0.262467 0.33867,0.262467 h 1.46473 c 0.127,0 0.33867,0 0.33867,-0.254 0,-0.262467 -0.2032,-0.262467 -0.33867,-0.262467 h -0.44027 v -4.140201 h 1.1176 v 0.448733 c 0,0.160867 0,0.347134 0.28787,0.347134 0.29633,0 0.29633,-0.1778 0.29633,-0.347134 z"
         style="font-style:normal;font-variant:normal;font-weight:normal;font-stretch:normal;font-size:8.46667px;font-family:'Latin Modern Mono';-inkscape-font-specification:'Latin Modern Mono';fill:#ffdada;fill-opacity:1;stroke-width:0.21456"
         id="path4894" />
      <path
         d="m 119.91219,82.856312 v -0.618067 c 0,-0.262467 -0.0508,-0.347133 -0.33866,-0.347133 h -3.31047 c -0.2794,0 -0.34714,0.06773 -0.34714,0.347133 v 0.618067 c 0,0.160867 0,0.347134 0.28787,0.347134 0.29633,0 0.29633,-0.1778 0.29633,-0.347134 v -0.448733 h 1.12607 v 4.140201 h -0.44026 c -0.127,0 -0.33867,0 -0.33867,0.254 0,0.262467 0.2032,0.262467 0.33867,0.262467 h 1.46473 c 0.127,0 0.33867,0 0.33867,-0.254 0,-0.262467 -0.2032,-0.262467 -0.33867,-0.262467 h -0.44027 v -4.140201 h 1.1176 v 0.448733 c 0,0.160867 0,0.347134 0.28787,0.347134 0.29633,0 0.29633,-0.1778 0.29633,-0.347134 z"
         style="font-style:normal;font-variant:normal;font-weight:normal;font-stretch:normal;font-size:8.46667px;font-family:'Latin Modern Mono';-inkscape-font-specification:'Latin Modern Mono';fill:#ffdada;fill-opacity:1;stroke-width:0.21456"
         id="path4896" />
      <path
         d="m 124.20479,83.440512 c 0,-0.7874 -0.62653,-1.5494 -1.6002,-1.5494 h -1.89653 c -0.127,0 -0.34714,0 -0.34714,0.254 0,0.262467 0.22014,0.262467 0.34714,0.262467 h 0.254 v 4.140201 h -0.254 c -0.13547,0 -0.34714,0 -0.34714,0.262467 0,0.254 0.22014,0.254 0.34714,0.254 h 1.0922 c 0.127,0 0.34713,0 0.34713,-0.254 0,-0.262467 -0.22013,-0.262467 -0.34713,-0.262467 h -0.254 v -1.557867 h 1.05833 c 0.98213,0 1.6002,-0.762 1.6002,-1.549401 z m -0.5842,0 c 0,0.448734 -0.36407,1.032934 -1.17687,1.032934 h -0.89746 v -2.065867 h 0.89746 c 0.8128,0 1.17687,0.5842 1.17687,1.032933 z"
         style="font-style:normal;font-variant:normal;font-weight:normal;font-stretch:normal;font-size:8.46667px;font-family:'Latin Modern Mono';-inkscape-font-specification:'Latin Modern Mono';fill:#ffdada;fill-opacity:1;stroke-width:0.21456"
         id="path4898" />
    </g>
  </g>
</svg>
